<?xml version="1.0" encoding="utf-8"?>
<!-- Generator: Adobe Illustrator 16.0.0, SVG Export Plug-In . SVG Version: 6.00 Build 0)  -->
<!DOCTYPE svg PUBLIC "-//W3C//DTD SVG 1.1//EN" "http://www.w3.org/Graphics/SVG/1.1/DTD/svg11.dtd">
<svg version="1.1" id="Check" xmlns="http://www.w3.org/2000/svg" xmlns:xlink="http://www.w3.org/1999/xlink" x="0px" y="0px"
	 width="18px" height="18px" viewBox="443.5 252.5 18 18" enable-background="new 443.5 252.5 18 18" xml:space="preserve">
<path fill="#ECE8D6" d="M452.5,252.5c-4.971,0-9,4.029-9,9s4.029,9,9,9s9-4.029,9-9S457.471,252.5,452.5,252.5z M457.559,257.712
	l-5.222,8.382c-0.181,0.292-0.495,0.475-0.838,0.491c-0.016,0.001-0.031,0.001-0.048,0.001c-0.325,0-0.633-0.152-0.831-0.414
	l-2.672-3.53c-0.348-0.458-0.257-1.111,0.202-1.458c0.46-0.35,1.113-0.257,1.46,0.202l1.758,2.321l4.42-7.098
	c0.304-0.487,0.947-0.637,1.437-0.333C457.714,256.579,457.864,257.223,457.559,257.712z"/>
</svg>
