<?xml version="1.0" encoding="utf-8"?>
<!-- Generator: Adobe Illustrator 16.0.0, SVG Export Plug-In . SVG Version: 6.00 Build 0)  -->
<!DOCTYPE svg PUBLIC "-//W3C//DTD SVG 1.1//EN" "http://www.w3.org/Graphics/SVG/1.1/DTD/svg11.dtd">
<svg version="1.1" id="Layer_1" xmlns="http://www.w3.org/2000/svg" xmlns:xlink="http://www.w3.org/1999/xlink" x="0px" y="0px"
	 width="4700px" height="601px" viewBox="0 0 4700 601" enable-background="new 0 0 4700 601" xml:space="preserve">
<g>
	<g>
		<defs>
			<polygon id="SVGID_1_" points="468.202,238.594 392.752,253.392 347,288.988 347,325.24 326.362,364.987 192.003,381.583 
				-41.15,249.68 -91.774,3.711 177.316,-23 468.202,-23 460.342,164.223 			"/>
		</defs>
		<clipPath id="SVGID_2_">
			<use xlink:href="#SVGID_1_"  overflow="visible"/>
		</clipPath>
		<path clip-path="url(#SVGID_2_)" fill="#6CA950" d="M345.225,86.509c89.149,57.007,84.041,149.961,80.956,184.319
			C311.06,120.41,138.812,127.709,138.812,127.709s244.121,92.377,315.872,277.537c5.662,14.627-26.599,33.663-33.949,16.385
			c-21.948-51.488-52.547-90.111-52.547-90.111c-45.153,18.479-123.241,40.237-178.585-2.72
			c-73.535-57.081-66.017-183.573-170.971-245.158C-5.871,69.282,224.37,9.144,345.225,86.509z"/>
	</g>
	<path fill="#ECE8D6" d="M672.975,263.904c-52.431,69.92-98.663,72.329-169.768,75.944h-2.433
		c-86.521-0.049-147.888-32.189-147.888-44.142c-0.048-11.349,55.366-40.887,135.045-43.826l14.218-35.49
		c-0.459,0-0.894-0.049-1.375-0.049c-118.252,0-187.715,37.635-187.715,73.512v48.188c0,22.118,14.022,215.615,182.679,215.615
		c168.658,0,192.751-193.497,192.751-215.615v-48.188c0-9.421-4.842-18.963-14.067-27.9L672.975,263.904z M688.394,148.976
		c-10.623-7.951-25.755-5.831-33.707,4.843l-86.931,115.868l56.285-140.661c4.962-12.336-1.063-26.358-13.421-31.347
		c-12.24-4.938-26.409,1.037-31.325,13.469l-78.521,196.173c69.438-3.542,103.051-5.468,146.179-62.909
		c43.104-57.512,46.238-61.705,46.238-61.705C701.187,172.083,699.046,156.976,688.394,148.976z"/>
</g>
<g>
	<path fill="#6CA950" d="M908.115,387.569h-24.866v157.174h30.497v8.914H761.265v-8.914h30.496V234.149h-30.496v-8.914h141.69
		c40.656,0,69.511,2.111,86.563,6.334c17.044,4.223,29.008,9.31,35.892,15.248c15.014,12.198,22.521,31.596,22.521,58.178
		c0,26.589-6.568,45.591-19.705,57.005c-13.138,11.421-33.158,18.224-60.055,20.408v1.408c25.335,3.445,43.003,10.952,53.017,22.521
		c10.007,11.575,15.014,30.965,15.014,58.177v24.866c0,16.268,0.857,27.213,2.58,32.843c1.716,5.63,5.396,8.445,11.026,8.445
		c5.63,0,10.087-2.581,13.371-7.741c3.284-5.161,6.334-16.025,9.148-32.608l7.977,0.938c-3.445,26.589-9.464,44.418-18.063,53.486
		c-8.606,9.068-25.731,13.605-51.374,13.605c-25.651,0-43.868-6.019-54.659-18.063c-10.791-12.038-16.187-34.639-16.187-67.796
		v-34.25c0-17.514-2.272-30.335-6.803-38.472C928.679,391.639,920.314,387.569,908.115,387.569z M883.249,234.149v144.506h15.014
		c17.829,0,31.039-5.469,39.646-16.421c8.599-10.945,12.902-28.773,12.902-53.486v-13.605c0-24.705-4.149-41.053-12.434-49.029
		c-8.291-7.976-21.508-11.964-39.645-11.964H883.249z"/>
	<path fill="#6CA950" d="M1122.761,527.148c-20.175-20.797-30.262-49.732-30.262-86.797s11.333-65.449,34.015-85.155
		c22.674-19.705,51.528-29.558,86.563-29.558c70.999,0,105.095,35.657,102.28,106.972h-132.308v18.298
		c0,30.657,3.907,53.801,11.729,69.438c7.814,15.645,21.421,23.459,40.818,23.459c36.28,0,60.055-19.391,71.314-58.178l8.445,1.407
		c-5.945,22.521-16.656,40.041-32.139,52.548c-15.482,12.514-38.707,18.767-69.672,18.767
		C1173.196,558.349,1142.935,547.954,1122.761,527.148z M1183.519,423.227h48.325v-22.989c0-25.335-1.488-42.614-4.458-51.844
		c-2.976-9.223-8.914-13.841-17.828-13.841s-15.482,4.927-19.705,14.779s-6.334,26.823-6.334,50.905V423.227z"/>
	<path fill="#6CA950" d="M1338.344,558.349v-83.981h5.631c8.13,27.212,19.074,46.294,32.842,57.239
		c13.76,10.952,30.966,16.421,51.609,16.421c31.903,0,47.855-10.161,47.855-30.496c0-8.754-3.915-15.322-11.729-19.706
		c-12.198-6.876-27.843-12.198-46.917-15.951c-21.274-5.631-39.103-13.138-53.486-22.521
		c-17.205-11.261-25.805-29.089-25.805-53.486c0-24.396,7.507-43.867,22.521-58.412c15.014-14.544,35.027-21.816,60.055-21.816
		c15.321,0,31.119,3.6,47.387,10.791c5.938,2.507,10.476,3.753,13.605,3.753c3.123,0,5.784-1.092,7.977-3.284
		c2.185-2.185,4.846-6.253,7.976-12.198h5.161v71.784h-5.63c-15.952-40.657-40.665-60.993-74.13-60.993
		c-14.706,0-25.65,2.58-32.842,7.741c-7.199,5.161-10.791,11.656-10.791,19.471c0,4.692,1.092,8.372,3.284,11.025
		c2.185,2.661,3.907,4.619,5.16,5.865c1.247,1.254,3.284,2.58,6.1,3.988c2.815,1.407,5.161,2.507,7.038,3.284
		c1.876,0.784,4.765,1.803,8.68,3.049c3.907,1.254,6.803,2.038,8.68,2.347c21.267,5.322,36.595,9.933,45.979,13.84
		c9.384,3.915,18.298,8.68,26.743,14.311c17.198,11.891,25.805,31.046,25.805,57.474c0,26.435-7.822,46.448-23.459,60.054
		c-15.644,13.606-37.064,20.409-64.276,20.409c-19.397,0-38.165-4.537-56.302-13.605c-3.753-2.5-6.729-3.754-8.914-3.754
		c-6.884,0-13.605,5.792-20.174,17.359H1338.344z"/>
	<path fill="#6CA950" d="M1549.939,486.565v-147.79h-25.805v-8.445h25.805v-60.523l87.267-21.582v82.105h60.992v8.445h-60.992
		v158.111c0,14.706,1.48,25.497,4.457,32.373c2.969,6.884,9.148,10.322,18.532,10.322s17.594-4.691,24.632-14.075
		c7.037-9.384,11.648-22.205,13.841-38.473l7.976,0.938c-2.507,21.582-9.384,38.707-20.644,51.375
		c-11.26,12.667-29.873,19.001-55.832,19.001c-25.966,0-45.825-5.16-59.585-15.482
		C1556.815,532.544,1549.939,513.777,1549.939,486.565z"/>
	<path fill="#6CA950" d="M1823.937,443.401h13.605v-36.127c0-29.711-1.642-49.651-4.926-59.819
		c-3.284-10.16-9.618-15.248-19.002-15.248c-5.63,0-10.718,1.488-15.248,4.457c-4.538,2.977-6.803,7.038-6.803,12.198
		c0,5.161,0.938,10.403,2.814,15.718h11.729c2.5,6.568,3.754,14.471,3.754,23.693c0,9.229-3.915,17.205-11.729,23.928
		c-7.822,6.729-17.675,10.087-29.559,10.087c-26.904,0-40.349-12.976-40.349-38.941c0-38.472,32.681-57.708,98.058-57.708
		c37.219,0,62.942,6.334,77.179,19.002c14.229,12.667,21.348,35.892,21.348,69.672v95.242c0,16.268,4.53,24.397,13.606,24.397
		c10.629,0,16.89-16.106,18.767-48.325l7.037,0.469c-1.253,27.527-6.414,46.448-15.482,56.771
		c-9.075,10.322-23.928,15.482-44.571,15.482c-37.534,0-59.116-11.567-64.746-34.719c-4.068,11.891-10.168,20.644-18.298,26.274
		c-8.138,5.63-20.021,8.444-35.657,8.444c-46.294,0-69.438-18.921-69.438-56.77c0-22.205,8.833-37.453,26.508-45.745
		C1760.202,447.551,1787.341,443.401,1823.937,443.401z M1807.75,532.544c1.715,4.692,4.999,7.038,9.853,7.038
		c4.846,0,9.383-3.988,13.605-11.964s6.334-19.002,6.334-33.077v-43.633h-3.284c-19.397,0-29.089,14.236-29.089,42.694v7.507
		C1805.169,517.377,1806.026,527.853,1807.75,532.544z"/>
	<path fill="#6CA950" d="M2238.687,553.657h-106.972l-5.16-34.25c-5.008,12.514-12.434,22.132-22.286,28.854
		s-24.478,10.087-43.868,10.087c-48.486,0-72.722-26.112-72.722-78.352V338.775h-26.273v-8.445h113.54v160.927
		c0,18.768,1.327,31.127,3.988,37.065c2.653,5.945,7.976,8.914,15.951,8.914c7.977,0,15.087-4.846,21.348-14.545
		c6.253-9.691,9.384-23.144,9.384-40.349V338.775h-21.582v-8.445h108.849v214.882h25.804V553.657z"/>
	<path fill="#6CA950" d="M2404.771,343.467c-11.575,0-21.743,7.507-30.496,22.521c-8.76,15.014-13.137,32.843-13.137,53.486v125.738
		h33.312v8.445h-146.383v-8.445h25.805V338.775h-25.805v-8.445h113.071v45.041c4.062-15.952,11.884-28.224,23.459-36.83
		c11.567-8.6,24.705-12.902,39.41-12.902c14.698,0,26.662,4.149,35.892,12.433c9.223,8.292,13.841,20.021,13.841,35.188
		c0,15.175-3.445,26.823-10.321,34.953c-6.884,8.138-17.44,12.199-31.67,12.199c-14.236,0-24.712-4.692-31.435-14.075
		c-6.729-9.384-7.587-22.359-2.58-38.941h16.891C2422.439,351.443,2419.155,343.467,2404.771,343.467z"/>
	<path fill="#6CA950" d="M2585.872,443.401h13.605v-36.127c0-29.711-1.642-49.651-4.926-59.819
		c-3.284-10.16-9.618-15.248-19.002-15.248c-5.63,0-10.718,1.488-15.248,4.457c-4.538,2.977-6.803,7.038-6.803,12.198
		c0,5.161,0.938,10.403,2.814,15.718h11.729c2.5,6.568,3.754,14.471,3.754,23.693c0,9.229-3.915,17.205-11.729,23.928
		c-7.822,6.729-17.675,10.087-29.559,10.087c-26.904,0-40.349-12.976-40.349-38.941c0-38.472,32.681-57.708,98.058-57.708
		c37.219,0,62.942,6.334,77.179,19.002c14.229,12.667,21.348,35.892,21.348,69.672v95.242c0,16.268,4.53,24.397,13.606,24.397
		c10.629,0,16.89-16.106,18.767-48.325l7.037,0.469c-1.253,27.527-6.414,46.448-15.482,56.771
		c-9.075,10.322-23.928,15.482-44.571,15.482c-37.534,0-59.116-11.567-64.746-34.719c-4.068,11.891-10.168,20.644-18.298,26.274
		c-8.138,5.63-20.021,8.444-35.657,8.444c-46.294,0-69.438-18.921-69.438-56.77c0-22.205,8.833-37.453,26.508-45.745
		C2522.138,447.551,2549.276,443.401,2585.872,443.401z M2569.686,532.544c1.715,4.692,4.999,7.038,9.853,7.038
		c4.846,0,9.383-3.988,13.605-11.964s6.334-19.002,6.334-33.077v-43.633h-3.284c-19.397,0-29.089,14.236-29.089,42.694v7.507
		C2567.104,517.377,2567.962,527.853,2569.686,532.544z"/>
	<path fill="#6CA950" d="M2731.782,330.33h113.071v43.164c5-14.383,12.668-25.958,22.989-34.719
		c10.322-8.753,25.959-13.137,46.918-13.137c48.479,0,72.722,26.12,72.722,78.352v141.222h26.273v8.445h-132.776v-8.445h19.236
		V392.73c0-18.767-1.254-30.885-3.753-36.361c-2.508-5.469-7.038-8.21-13.606-8.21c-10.014,0-18.848,6.568-26.508,19.705
		c-7.669,13.137-11.495,29.089-11.495,47.855v129.492h20.175v8.445h-133.246v-8.445h25.805V338.775h-25.805V330.33z"/>
	<path fill="#6CA950" d="M3040.972,486.565v-147.79h-25.805v-8.445h25.805v-60.523l87.267-21.582v82.105h60.992v8.445h-60.992
		v158.111c0,14.706,1.48,25.497,4.457,32.373c2.969,6.884,9.148,10.322,18.532,10.322s17.594-4.691,24.632-14.075
		c7.037-9.384,11.648-22.205,13.841-38.473l7.976,0.938c-2.507,21.582-9.384,38.707-20.644,51.375
		c-11.26,12.667-29.873,19.001-55.832,19.001c-25.966,0-45.825-5.16-59.585-15.482
		C3047.848,532.544,3040.972,513.777,3040.972,486.565z"/>
	<path fill="#6CA950" d="M3539.229,225.235h125.27v8.914h-25.805v310.594h25.805v8.914H3521.4v-8.914h25.805V251.509h-1.876
		l-70.377,302.148h-58.646l-82.574-303.556h-1.877v294.642h25.805v8.914h-63.808v-8.914h25.805V234.149h-25.805v-8.914h126.677
		l62.4,241.625L3539.229,225.235z"/>
	<path fill="#6CA950" d="M3713.527,527.148c-20.175-20.797-30.262-49.732-30.262-86.797s11.333-65.449,34.015-85.155
		c22.674-19.705,51.528-29.558,86.563-29.558c70.999,0,105.095,35.657,102.28,106.972h-132.308v18.298
		c0,30.657,3.907,53.801,11.729,69.438c7.814,15.645,21.421,23.459,40.818,23.459c36.28,0,60.055-19.391,71.314-58.178l8.445,1.407
		c-5.945,22.521-16.656,40.041-32.139,52.548c-15.482,12.514-38.707,18.767-69.672,18.767
		C3763.963,558.349,3733.701,547.954,3713.527,527.148z M3774.285,423.227h48.325v-22.989c0-25.335-1.488-42.614-4.458-51.844
		c-2.976-9.223-8.914-13.841-17.828-13.841s-15.482,4.927-19.705,14.779s-6.334,26.823-6.334,50.905V423.227z"/>
	<path fill="#6CA950" d="M3923.946,330.33h113.071v43.164c5-14.383,12.668-25.958,22.989-34.719
		c10.322-8.753,25.959-13.137,46.918-13.137c48.479,0,72.722,26.12,72.722,78.352v141.222h26.273v8.445h-132.776v-8.445h19.236
		V392.73c0-18.767-1.254-30.885-3.753-36.361c-2.508-5.469-7.038-8.21-13.606-8.21c-10.014,0-18.848,6.568-26.508,19.705
		c-7.669,13.137-11.495,29.089-11.495,47.855v129.492h20.175v8.445h-133.246v-8.445h25.805V338.775h-25.805V330.33z"/>
	<path fill="#6CA950" d="M4477.106,553.657h-106.972l-5.16-34.25c-5.008,12.514-12.434,22.132-22.286,28.854
		s-24.478,10.087-43.868,10.087c-48.486,0-72.722-26.112-72.722-78.352V338.775h-26.273v-8.445h113.54v160.927
		c0,18.768,1.327,31.127,3.988,37.065c2.653,5.945,7.976,8.914,15.951,8.914c7.977,0,15.087-4.846,21.348-14.545
		c6.253-9.691,9.384-23.144,9.384-40.349V338.775h-21.582v-8.445h108.849v214.882h25.804V553.657z"/>
	<path fill="#6CA950" d="M4497.279,558.349v-83.981h5.631c8.13,27.212,19.074,46.294,32.842,57.239
		c13.76,10.952,30.966,16.421,51.609,16.421c31.903,0,47.855-10.161,47.855-30.496c0-8.754-3.915-15.322-11.729-19.706
		c-12.198-6.876-27.843-12.198-46.917-15.951c-21.274-5.631-39.103-13.138-53.486-22.521
		c-17.205-11.261-25.805-29.089-25.805-53.486c0-24.396,7.507-43.867,22.521-58.412c15.014-14.544,35.027-21.816,60.055-21.816
		c15.321,0,31.119,3.6,47.387,10.791c5.938,2.507,10.476,3.753,13.605,3.753c3.123,0,5.784-1.092,7.977-3.284
		c2.185-2.185,4.846-6.253,7.976-12.198h5.161v71.784h-5.63c-15.952-40.657-40.665-60.993-74.13-60.993
		c-14.706,0-25.65,2.58-32.842,7.741c-7.199,5.161-10.791,11.656-10.791,19.471c0,4.692,1.092,8.372,3.284,11.025
		c2.185,2.661,3.907,4.619,5.16,5.865c1.247,1.254,3.284,2.58,6.1,3.988c2.815,1.407,5.161,2.507,7.038,3.284
		c1.876,0.784,4.765,1.803,8.68,3.049c3.907,1.254,6.803,2.038,8.68,2.347c21.267,5.322,36.595,9.933,45.979,13.84
		c9.384,3.915,18.298,8.68,26.743,14.311c17.198,11.891,25.805,31.046,25.805,57.474c0,26.435-7.822,46.448-23.459,60.054
		c-15.644,13.606-37.064,20.409-64.276,20.409c-19.397,0-38.165-4.537-56.302-13.605c-3.753-2.5-6.729-3.754-8.914-3.754
		c-6.884,0-13.605,5.792-20.174,17.359H4497.279z"/>
</g>
</svg>
